<svg version="1.1" xmlns="http://www.w3.org/2000/svg" viewBox="0 0 10431.839050174225 5175.833333333334" width="31295.517150522675" height="15527.500000000002" filter="invert(93%) hue-rotate(180deg)">
  <!-- svg-source:excalidraw -->
  
  <defs>
    <style class="style-fonts">
      @font-face {
        font-family: "Virgil";
        src: url("https://excalidraw.com/Virgil.woff2");
      }
      @font-face {
        font-family: "Cascadia";
        src: url("https://excalidraw.com/Cascadia.woff2");
      }
      @font-face {
        font-family: "Assistant";
        src: url("https://excalidraw.com/Assistant-Regular.woff2");
      }
    </style>
    
  </defs>
  <rect x="0" y="0" width="10431.839050174225" height="5175.833333333334" fill="#ffffff"></rect><g stroke-linecap="round" transform="translate(5749.985618593661 491.67460317460336) rotate(0 519.9999999999998 280)"><path d="M32 0 C337.1 2.99, 643.12 1.68, 1008 0 M32 0 C318.71 3.94, 606.25 3.74, 1008 0 M1008 0 C1028.5 0.23, 1038.98 10.94, 1040 32 M1008 0 C1028.36 -1.59, 1038.42 9.57, 1040 32 M1040 32 C1041.93 163.25, 1041.31 295.24, 1040 528 M1040 32 C1039.51 220.3, 1039.84 407.6, 1040 528 M1040 528 C1039.2 547.88, 1030.69 560.74, 1008 560 M1040 528 C1040.95 551.42, 1027.37 561.1, 1008 560 M1008 560 C638.84 559.72, 269.09 560.47, 32 560 M1008 560 C768.18 558.66, 528.14 558.55, 32 560 M32 560 C9.61 559.36, 0.75 551.11, 0 528 M32 560 C11.05 562.14, 0.18 548.39, 0 528 M0 528 C-1.12 377.83, -1.29 228.3, 0 32 M0 528 C0.26 411.28, 0.16 293.97, 0 32 M0 32 C-0.5 8.97, 8.86 1.01, 32 0 M0 32 C1.49 9.19, 9.67 -1.99, 32 0" stroke="#1e1e1e" stroke-width="2" fill="none"></path></g><g transform="translate(6034.743949892489 678.6746031746034) rotate(0 235.24166870117188 92.99999999999977)"><text x="0" y="130.34879999999976" font-family="Virgil, Segoe UI Emoji" font-size="148.7999999999997px" fill="#1e1e1e" text-anchor="start" style="white-space: pre;" direction="ltr" dominant-baseline="alphabetic">Games</text></g><g transform="translate(4927.596729704772 444.93650793650795) rotate(0 213.90000915527332 67.5)"><text x="0" y="94.60799999999995" font-family="Virgil, Segoe UI Emoji" font-size="107.99999999999993px" fill="#1e1e1e" text-anchor="start" style="white-space: pre;" direction="ltr" dominant-baseline="alphabetic">GameID</text></g><g transform="translate(5192.176094784137 88.33333333333348) rotate(0 259.7839434588401 63.333333333333485)"><text x="0" y="88.76800000000009" font-family="Virgil, Segoe UI Emoji" font-size="101.33333333333344px" fill="#1e1e1e" text-anchor="start" style="white-space: pre;" direction="ltr" dominant-baseline="alphabetic">GameName</text></g><g transform="translate(5819.676094784138 10) rotate(0 161.27221976386159 72.5)"><text x="0" y="101.61599999999987" font-family="Virgil, Segoe UI Emoji" font-size="115.99999999999987px" fill="#1e1e1e" text-anchor="start" style="white-space: pre;" direction="ltr" dominant-baseline="alphabetic">Genre</text></g><g transform="translate(6223.676094784138 28.333333333333485) rotate(0 246.41759490966797 51.25)"><text x="0" y="71.83199999999997" font-family="Virgil, Segoe UI Emoji" font-size="81.99999999999996px" fill="#1e1e1e" text-anchor="start" style="white-space: pre;" direction="ltr" dominant-baseline="alphabetic">DeveloperID</text></g><g transform="translate(6801.176094784138 78.33333333333348) rotate(0 294.5916756523982 66.25)"><text x="0" y="92.85600000000005" font-family="Virgil, Segoe UI Emoji" font-size="106.00000000000004px" fill="#1e1e1e" text-anchor="start" style="white-space: pre;" direction="ltr" dominant-baseline="alphabetic">PublisherID</text></g><g transform="translate(7351.176094784138 418.3333333333335) rotate(0 287.7777837117512 52.5)"><text x="0" y="73.58400000000002" font-family="Virgil, Segoe UI Emoji" font-size="84.00000000000003px" fill="#1e1e1e" text-anchor="start" style="white-space: pre;" direction="ltr" dominant-baseline="alphabetic">Release Date</text></g><g stroke-linecap="round"><g transform="translate(6811.295142403184 669.689897408467) rotate(0 268.9940932862096 -87.7290754768203)"><path d="M0.23 0.2 C90.27 -28.98, 449.31 -146.2, 539.1 -175.66 M-1.11 -0.74 C88.9 -29.68, 448.37 -145.05, 538.27 -174.24" stroke="#1e1e1e" stroke-width="2" fill="none"></path></g><g transform="translate(6811.295142403184 669.689897408467) rotate(0 268.9940932862096 -87.7290754768203)"><path d="M518.54 -158.89 C522.95 -161.67, 526.23 -164.98, 538.27 -174.24 M518.54 -158.89 C521.95 -161.89, 527.1 -164.71, 538.27 -174.24" stroke="#1e1e1e" stroke-width="2" fill="none"></path></g><g transform="translate(6811.295142403184 669.689897408467) rotate(0 268.9940932862096 -87.7290754768203)"><path d="M513.29 -175.17 C518.68 -174.66, 523.03 -174.67, 538.27 -174.24 M513.29 -175.17 C517.91 -174.86, 524.13 -174.34, 538.27 -174.24" stroke="#1e1e1e" stroke-width="2" fill="none"></path></g></g><mask></mask><g stroke-linecap="round"><g transform="translate(5716.176094784137 691.3501996832879) rotate(0 -174.7205149850899 -56.66788464934757)"><path d="M0.46 -1.01 C-57.84 -19.89, -291.02 -95.74, -349.32 -114.42 M-0.75 1.08 C-59.2 -17.6, -291.75 -94.68, -349.91 -113.46" stroke="#1e1e1e" stroke-width="2" fill="none"></path></g><g transform="translate(5716.176094784137 691.3501996832879) rotate(0 -174.7205149850899 -56.66788464934757)"><path d="M-324.92 -114.27 C-335.17 -112.76, -343.9 -112.44, -349.91 -113.46 M-324.92 -114.27 C-332.75 -113.08, -341.53 -112.93, -349.91 -113.46" stroke="#1e1e1e" stroke-width="2" fill="none"></path></g><g transform="translate(5716.176094784137 691.3501996832879) rotate(0 -174.7205149850899 -56.66788464934757)"><path d="M-330.24 -98.02 C-338.52 -102.1, -345.43 -107.35, -349.91 -113.46 M-330.24 -98.02 C-336.45 -102.09, -343.52 -107.16, -349.91 -113.46" stroke="#1e1e1e" stroke-width="2" fill="none"></path></g></g><mask></mask><g stroke-linecap="round"><g transform="translate(5870.767687981632 475.8333333333335) rotate(0 -206.21339779989057 -128.14850711219947)"><path d="M0.92 0.52 C-67.93 -41.9, -343.73 -212.19, -412.53 -254.8 M-0.05 -0.25 C-69.1 -43.03, -344.66 -214.54, -413.35 -256.82" stroke="#1e1e1e" stroke-width="2" fill="none"></path></g><g transform="translate(5870.767687981632 475.8333333333335) rotate(0 -206.21339779989057 -128.14850711219947)"><path d="M-388.88 -251.72 C-396.59 -252.92, -405.73 -253.66, -413.35 -256.82 M-388.88 -251.72 C-396.41 -253.89, -402.73 -255.64, -413.35 -256.82" stroke="#1e1e1e" stroke-width="2" fill="none"></path></g><g transform="translate(5870.767687981632 475.8333333333335) rotate(0 -206.21339779989057 -128.14850711219947)"><path d="M-397.88 -237.18 C-402.4 -243.56, -408.38 -249.41, -413.35 -256.82 M-397.88 -237.18 C-402.94 -243.51, -406.67 -249.43, -413.35 -256.82" stroke="#1e1e1e" stroke-width="2" fill="none"></path></g></g><mask></mask><g stroke-linecap="round"><g transform="translate(6054.605102601198 473.3333333333335) rotate(0 -39.42780752009412 -149.5217854081343)"><path d="M-0.61 -0.08 C-13.98 -49.85, -67.22 -249.16, -80.13 -298.96 M1.28 -1.17 C-11.73 -50.76, -64.67 -248.31, -77.93 -297.76" stroke="#1e1e1e" stroke-width="2" fill="none"></path></g><g transform="translate(6054.605102601198 473.3333333333335) rotate(0 -39.42780752009412 -149.5217854081343)"><path d="M-63.59 -277.28 C-68.06 -285.25, -73.37 -288.07, -77.93 -297.76 M-63.59 -277.28 C-66.47 -281.62, -71.28 -286.7, -77.93 -297.76" stroke="#1e1e1e" stroke-width="2" fill="none"></path></g><g transform="translate(6054.605102601198 473.3333333333335) rotate(0 -39.42780752009412 -149.5217854081343)"><path d="M-80.11 -272.85 C-79.51 -282.09, -79.75 -286.28, -77.93 -297.76 M-80.11 -272.85 C-78.81 -278.36, -79.44 -284.55, -77.93 -297.76" stroke="#1e1e1e" stroke-width="2" fill="none"></path></g></g><mask></mask><g stroke-linecap="round"><g transform="translate(6435.316453193667 470.8333333333335) rotate(0 21.649912107896398 -166.44562865681928)"><path d="M-0.86 -0.14 C6.09 -55.53, 34.64 -277.4, 42.03 -332.75 M0.89 -1.26 C8.16 -56.43, 37.15 -276.42, 44.16 -331.35" stroke="#1e1e1e" stroke-width="2" fill="none"></path></g><g transform="translate(6435.316453193667 470.8333333333335) rotate(0 21.649912107896398 -166.44562865681928)"><path d="M49.61 -306.95 C47.66 -316.91, 45.68 -322.51, 44.16 -331.35 M49.61 -306.95 C47.83 -314.27, 46.39 -322.22, 44.16 -331.35" stroke="#1e1e1e" stroke-width="2" fill="none"></path></g><g transform="translate(6435.316453193667 470.8333333333335) rotate(0 21.649912107896398 -166.44562865681928)"><path d="M32.65 -309.15 C36.29 -318.26, 39.9 -323.14, 44.16 -331.35 M32.65 -309.15 C36.3 -315.84, 40.27 -323.09, 44.16 -331.35" stroke="#1e1e1e" stroke-width="2" fill="none"></path></g></g><mask></mask><g stroke-linecap="round"><g transform="translate(6666.982768500787 470.4841269841263) rotate(0 231.2274770905941 -128.89499332050332)"><path d="M0.5 1.05 C77.2 -42.2, 384.15 -215.36, 460.95 -258.84 M-0.7 0.56 C76.3 -42.56, 386.34 -214.13, 463.16 -257.41" stroke="#1e1e1e" stroke-width="2" fill="none"></path></g><g transform="translate(6666.982768500787 470.4841269841263) rotate(0 231.2274770905941 -128.89499332050332)"><path d="M446.8 -238.5 C454.39 -247.03, 458.25 -253.32, 463.16 -257.41 M446.8 -238.5 C450.99 -242.9, 454.46 -245.77, 463.16 -257.41" stroke="#1e1e1e" stroke-width="2" fill="none"></path></g><g transform="translate(6666.982768500787 470.4841269841263) rotate(0 231.2274770905941 -128.89499332050332)"><path d="M438.47 -253.43 C449.16 -256.58, 456.05 -257.45, 463.16 -257.41 M438.47 -253.43 C444.32 -254.79, 449.48 -254.63, 463.16 -257.41" stroke="#1e1e1e" stroke-width="2" fill="none"></path></g></g><mask></mask><g transform="translate(5215.044320352743 2415.9695976870617) rotate(0 371.13177443139307 85.69706897960305)"><text x="0" y="120.1130118818117" font-family="Virgil, Segoe UI Emoji" font-size="137.11531036736497px" fill="#1e1e1e" text-anchor="start" style="white-space: pre;" direction="ltr" dominant-baseline="alphabetic">Developers</text></g><g stroke-linecap="round" transform="translate(4967.842761450804 2191.666666666665) rotate(0 618.333333333333 310)"><path d="M32 0 C415.98 4.34, 798.03 3.4, 1204.67 0 M32 0 C371.36 1.35, 711.8 1.77, 1204.67 0 M1204.67 0 C1226.18 0.61, 1236.77 10.55, 1236.67 32 M1204.67 0 C1227.57 1.74, 1235.24 8.76, 1236.67 32 M1236.67 32 C1235 162.92, 1234.05 294.49, 1236.67 588 M1236.67 32 C1237.37 241.96, 1237.98 451.07, 1236.67 588 M1236.67 588 C1238.55 607.75, 1226.28 619.93, 1204.67 620 M1236.67 588 C1235.72 610.64, 1226.75 622.01, 1204.67 620 M1204.67 620 C814.23 622.98, 424.93 623.85, 32 620 M1204.67 620 C769.55 615.6, 334.35 615.22, 32 620 M32 620 C10.28 621.1, 1.95 607.76, 0 588 M32 620 C9.08 618.66, 1.24 609.11, 0 588 M0 588 C-1.42 454.94, -0.65 320.98, 0 32 M0 588 C0.39 400.34, 0.82 212.77, 0 32 M0 32 C1.43 9.22, 8.81 -0.79, 32 0 M0 32 C-1.84 9.14, 9.61 1.31, 32 0" stroke="#1e1e1e" stroke-width="2" fill="none"></path></g><g transform="translate(4631.176094784138 3511.406562261852) rotate(0 313.15494283040357 65.13005220240666)"><text x="0" y="91.28628116689337" font-family="Virgil, Segoe UI Emoji" font-size="104.20808352385087px" fill="#1e1e1e" text-anchor="start" style="white-space: pre;" direction="ltr" dominant-baseline="alphabetic">DeveloperID</text></g><g transform="translate(5816.142749243772 3513.333333333332) rotate(0 387.525009155273 67.5)"><text x="0" y="94.60799999999989" font-family="Virgil, Segoe UI Emoji" font-size="107.99999999999986px" fill="#1e1e1e" text-anchor="start" style="white-space: pre;" direction="ltr" dominant-baseline="alphabetic">DeveloperName</text></g><g transform="translate(6953.550162302583 3298.333333333332) rotate(0 218.0879677666553 70.83333333333303)"><text x="0" y="99.27999999999986" font-family="Virgil, Segoe UI Emoji" font-size="113.33333333333316px" fill="#1e1e1e" text-anchor="start" style="white-space: pre;" direction="ltr" dominant-baseline="alphabetic">Founded</text></g><g transform="translate(3599.7341177423978 3451.666666666665) rotate(0 330.43765569616244 60.833333333333485)"><text x="0" y="85.26399999999998" font-family="Virgil, Segoe UI Emoji" font-size="97.33333333333331px" fill="#1e1e1e" text-anchor="start" style="white-space: pre;" direction="ltr" dominant-baseline="alphabetic">HeadQuarters</text></g><g stroke-linecap="round"><g transform="translate(5226.780368473478 2828.333333333332) rotate(0 -59.345148108266926 332.6285509891741)"><path d="M-0.02 -0.15 C-19.63 110.7, -98.07 554.24, -117.96 664.91 M-1.49 -1.28 C-21.19 109.81, -99.42 555.53, -118.67 666.54" stroke="#1e1e1e" stroke-width="2" fill="none"></path></g><g transform="translate(5226.780368473478 2828.333333333332) rotate(0 -59.345148108266926 332.6285509891741)"><path d="M-123.05 641.92 C-122.15 649.44, -120.4 653.86, -118.67 666.54 M-123.05 641.92 C-121.5 647.93, -121.5 652.92, -118.67 666.54" stroke="#1e1e1e" stroke-width="2" fill="none"></path></g><g transform="translate(5226.780368473478 2828.333333333332) rotate(0 -59.345148108266926 332.6285509891741)"><path d="M-106.2 644.87 C-109.92 651.57, -112.8 655.19, -118.67 666.54 M-106.2 644.87 C-108.53 650.14, -112.39 654.45, -118.67 666.54" stroke="#1e1e1e" stroke-width="2" fill="none"></path></g></g><mask></mask><g stroke-linecap="round"><g transform="translate(6074.956200863466 2812.666666666665) rotate(0 51.73658508637675 338.67741041518775)"><path d="M-0.95 -0.51 C16.59 112.64, 87 564.8, 104.42 678.1 M0.76 -1.82 C18.3 111.52, 87 566, 104.03 679.17" stroke="#1e1e1e" stroke-width="2" fill="none"></path></g><g transform="translate(6074.956200863466 2812.666666666665) rotate(0 51.73658508637675 338.67741041518775)"><path d="M92.06 657.22 C93.85 664.16, 95.98 667.86, 104.03 679.17 M92.06 657.22 C96.18 663.62, 100.11 671.45, 104.03 679.17" stroke="#1e1e1e" stroke-width="2" fill="none"></path></g><g transform="translate(6074.956200863466 2812.666666666665) rotate(0 51.73658508637675 338.67741041518775)"><path d="M108.97 654.67 C106.83 662.07, 105.03 666.36, 104.03 679.17 M108.97 654.67 C107.52 661.9, 105.9 670.57, 104.03 679.17" stroke="#1e1e1e" stroke-width="2" fill="none"></path></g></g><mask></mask><g stroke-linecap="round"><g transform="translate(6221.702119319163 2791.666666666665) rotate(0 361.17584239424673 250.45225813661318)"><path d="M-0.46 0.27 C120.2 84.05, 602.65 418.19, 722.81 501.54 M1.49 -0.64 C122.21 82.89, 602.25 416.06, 722.47 499.72" stroke="#1e1e1e" stroke-width="2" fill="none"></path></g><g transform="translate(6221.702119319163 2791.666666666665) rotate(0 361.17584239424673 250.45225813661318)"><path d="M698.3 493.34 C703.53 496.62, 708.89 494.07, 722.47 499.72 M698.3 493.34 C704.46 495.15, 710.76 496.95, 722.47 499.72" stroke="#1e1e1e" stroke-width="2" fill="none"></path></g><g transform="translate(6221.702119319163 2791.666666666665) rotate(0 361.17584239424673 250.45225813661318)"><path d="M708.05 479.29 C711.2 485.35, 714.6 485.63, 722.47 499.72 M708.05 479.29 C711.8 484.53, 715.67 489.84, 722.47 499.72" stroke="#1e1e1e" stroke-width="2" fill="none"></path></g></g><mask></mask><g stroke-linecap="round"><g transform="translate(4955.722060952098 2734.4339876862805) rotate(0 -524.5883696978157 345.204163140706)"><path d="M0.8 0.6 C-173.9 115.37, -874.09 574.09, -1048.98 688.97 M-0.24 -0.13 C-175.03 114.81, -875.17 575.85, -1049.98 690.54" stroke="#1e1e1e" stroke-width="2" fill="none"></path></g><g transform="translate(4955.722060952098 2734.4339876862805) rotate(0 -524.5883696978157 345.204163140706)"><path d="M-1035.05 670.49 C-1037.48 675.12, -1041.87 680.58, -1049.98 690.54 M-1035.05 670.49 C-1041.2 677.04, -1045.48 684.89, -1049.98 690.54" stroke="#1e1e1e" stroke-width="2" fill="none"></path></g><g transform="translate(4955.722060952098 2734.4339876862805) rotate(0 -524.5883696978157 345.204163140706)"><path d="M-1025.65 684.78 C-1030.33 686.13, -1036.92 688.23, -1049.98 690.54 M-1025.65 684.78 C-1035.27 685.85, -1043.11 688.3, -1049.98 690.54" stroke="#1e1e1e" stroke-width="2" fill="none"></path></g></g><mask></mask><g transform="translate(8479.091841684913 1951.6666666666679) rotate(0 347.08425309922904 90.83333333333303)"><text x="0" y="127.31199999999981" font-family="Virgil, Segoe UI Emoji" font-size="145.33333333333312px" fill="#1e1e1e" text-anchor="start" style="white-space: pre;" direction="ltr" dominant-baseline="alphabetic">Publishers</text></g><g stroke-linecap="round" transform="translate(8207.842761450807 1682.500000000001) rotate(0 618.3333333333335 360)"><path d="M32 0 C288.77 -3.64, 545.66 -3.51, 1204.67 0 M32 0 C273.77 1.72, 515.67 1.69, 1204.67 0 M1204.67 0 C1224.12 1.09, 1235.45 11.88, 1236.67 32 M1204.67 0 C1223.86 1.44, 1236.61 11.7, 1236.67 32 M1236.67 32 C1238.01 274.38, 1238.67 517.8, 1236.67 688 M1236.67 32 C1238.41 227.11, 1238.19 421.98, 1236.67 688 M1236.67 688 C1238.18 709.26, 1227.75 721.98, 1204.67 720 M1236.67 688 C1234.93 711.6, 1225.12 717.99, 1204.67 720 M1204.67 720 C753.73 715.28, 302.54 716.4, 32 720 M1204.67 720 C886.42 716.94, 568.51 716.37, 32 720 M32 720 C9.52 718.47, 1.56 709.28, 0 688 M32 720 C8.67 718.32, -1.03 708.48, 0 688 M0 688 C1.02 515.48, 1.75 343.01, 0 32 M0 688 C2 461.01, 2.2 233.15, 0 32 M0 32 C-0.02 12.05, 10.55 1.58, 32 0 M0 32 C1.4 12.82, 12.66 0.03, 32 0" stroke="#1e1e1e" stroke-width="2" fill="none"></path></g><g transform="translate(7660.620527925781 2835.833333333334) rotate(0 285.3277864809388 64.16666666666652)"><text x="0" y="89.93599999999996" font-family="Virgil, Segoe UI Emoji" font-size="102.66666666666663px" fill="#1e1e1e" text-anchor="start" style="white-space: pre;" direction="ltr" dominant-baseline="alphabetic">PublisherID</text></g><g transform="translate(8391.268695288698 2854.166666666667) rotate(0 309.32869720459075 57.5)"><text x="0" y="80.59200000000024" font-family="Virgil, Segoe UI Emoji" font-size="92.00000000000027px" fill="#1e1e1e" text-anchor="start" style="white-space: pre;" direction="ltr" dominant-baseline="alphabetic">PublisherName</text></g><g transform="translate(9154.509428117475 2814.166666666668) rotate(0 212.95648617214647 69.16666666666652)"><text x="0" y="96.94400000000002" font-family="Virgil, Segoe UI Emoji" font-size="110.6666666666667px" fill="#1e1e1e" text-anchor="start" style="white-space: pre;" direction="ltr" dominant-baseline="alphabetic">Founded</text></g><g transform="translate(9829.509428117477 2809.166666666668) rotate(0 296.1648110283736 55.83333333333303)"><text x="0" y="78.25599999999963" font-family="Virgil, Segoe UI Emoji" font-size="89.33333333333292px" fill="#1e1e1e" text-anchor="start" style="white-space: pre;" direction="ltr" dominant-baseline="alphabetic">Headquarters</text></g><g stroke-linecap="round"><g transform="translate(8307.212443598943 2405.833333333332) rotate(0 -88.24215885109425 206.85297717354297)"><path d="M0.86 -1.12 C-28.62 67.87, -146.83 344.63, -176.41 413.88 M-0.14 0.91 C-29.83 70.01, -147.8 345.76, -177.35 414.83" stroke="#1e1e1e" stroke-width="2" fill="none"></path></g><g transform="translate(8307.212443598943 2405.833333333332) rotate(0 -88.24215885109425 206.85297717354297)"><path d="M-175.97 389.86 C-178.32 398.46, -178.8 406.75, -177.35 414.83 M-175.97 389.86 C-176.6 396.94, -176.76 401.38, -177.35 414.83" stroke="#1e1e1e" stroke-width="2" fill="none"></path></g><g transform="translate(8307.212443598943 2405.833333333332) rotate(0 -88.24215885109425 206.85297717354297)"><path d="M-160.25 396.59 C-167.99 402.99, -173.86 408.98, -177.35 414.83 M-160.25 396.59 C-164.71 402.05, -168.72 404.84, -177.35 414.83" stroke="#1e1e1e" stroke-width="2" fill="none"></path></g></g><mask></mask><g stroke-linecap="round"><g transform="translate(8515.514525995206 2403.500000000001) rotate(0 96.60432901429544 217.66280505907025)"><path d="M-0.82 -1.02 C31.67 71.43, 161.54 362.39, 194.03 435.1 M0.96 1.06 C33.38 73.63, 161.08 363.79, 193.16 436.34" stroke="#1e1e1e" stroke-width="2" fill="none"></path></g><g transform="translate(8515.514525995206 2403.500000000001) rotate(0 96.60432901429544 217.66280505907025)"><path d="M175.86 418.3 C178.12 422.76, 182.77 426.96, 193.16 436.34 M175.86 418.3 C180.32 423.83, 186.03 427.68, 193.16 436.34" stroke="#1e1e1e" stroke-width="2" fill="none"></path></g><g transform="translate(8515.514525995206 2403.500000000001) rotate(0 96.60432901429544 217.66280505907025)"><path d="M191.51 411.4 C190.27 417.3, 191.4 423.06, 193.16 436.34 M191.51 411.4 C191.8 418.9, 193.35 424.59, 193.16 436.34" stroke="#1e1e1e" stroke-width="2" fill="none"></path></g></g><mask></mask><g stroke-linecap="round"><g transform="translate(9072.62615465812 2408.500000000001) rotate(0 100.31313222908375 198.691915624157)"><path d="M-0.55 0.13 C32.63 66.61, 165.68 331.96, 198.97 398.23 M1.36 -0.85 C34.92 65.36, 167.79 330.51, 201.18 396.59" stroke="#1e1e1e" stroke-width="2" fill="none"></path></g><g transform="translate(9072.62615465812 2408.500000000001) rotate(0 100.31313222908375 198.691915624157)"><path d="M182.98 379.44 C188.36 382.87, 194.9 388.19, 201.18 396.59 M182.98 379.44 C189.11 385.62, 196.13 390.47, 201.18 396.59" stroke="#1e1e1e" stroke-width="2" fill="none"></path></g><g transform="translate(9072.62615465812 2408.500000000001) rotate(0 100.31313222908375 198.691915624157)"><path d="M198.26 371.76 C199.18 377.33, 201.31 384.88, 201.18 396.59 M198.26 371.76 C199.28 380.45, 201.18 387.88, 201.18 396.59" stroke="#1e1e1e" stroke-width="2" fill="none"></path></g></g><mask></mask><g stroke-linecap="round"><g transform="translate(9264.831640793385 2407.5000000000036) rotate(0 306.77326830493257 196.70063836873032)"><path d="M1.1 -0.09 C103.04 65.54, 509.27 327.76, 610.94 393.14 M0.22 -1.18 C102.62 64.69, 511.68 328.89, 613.33 394.58" stroke="#1e1e1e" stroke-width="2" fill="none"></path></g><g transform="translate(9264.831640793385 2407.5000000000036) rotate(0 306.77326830493257 196.70063836873032)"><path d="M588.96 389.01 C594.62 389.1, 600.29 390.72, 613.33 394.58 M588.96 389.01 C594.51 390.18, 600.01 391.99, 613.33 394.58" stroke="#1e1e1e" stroke-width="2" fill="none"></path></g><g transform="translate(9264.831640793385 2407.5000000000036) rotate(0 306.77326830493257 196.70063836873032)"><path d="M598.24 374.65 C601.61 378.26, 605.05 383.32, 613.33 394.58 M598.24 374.65 C601.8 378.7, 605.38 383.5, 613.33 394.58" stroke="#1e1e1e" stroke-width="2" fill="none"></path></g></g><mask></mask><g stroke-linecap="round" transform="translate(2629.8483358450076 1606.9577352472106) rotate(0 524.1666666666669 314.4377990430621)"><path d="M32 0 C296.97 -2.96, 560.78 -2.85, 1016.33 0 M32 0 C398.64 -3.43, 765.08 -3.69, 1016.33 0 M1016.33 0 C1038.64 1.85, 1048.63 11.31, 1048.33 32 M1016.33 0 C1035.41 1.85, 1047.76 9.5, 1048.33 32 M1048.33 32 C1048.64 222.97, 1049.85 414.4, 1048.33 596.88 M1048.33 32 C1047.11 240.5, 1047.42 448.82, 1048.33 596.88 M1048.33 596.88 C1047.57 619.45, 1037.1 628.97, 1016.33 628.88 M1048.33 596.88 C1049.34 618.31, 1035.99 631.13, 1016.33 628.88 M1016.33 628.88 C700.65 628.35, 385.69 628.54, 32 628.88 M1016.33 628.88 C681.16 627.58, 346.22 627.42, 32 628.88 M32 628.88 C12.56 630.5, -0.52 617.7, 0 596.88 M32 628.88 C12.91 628.18, 0.03 617.59, 0 596.88 M0 596.88 C1.61 381.26, 0.24 167.05, 0 32 M0 596.88 C-1.66 460.96, -1.5 324.12, 0 32 M0 32 C-0.48 11.87, 10.04 1.59, 32 0 M0 32 C1.42 11.97, 10.27 0.34, 32 0" stroke="#1e1e1e" stroke-width="2" fill="none"></path></g><g transform="translate(2742.515291448459 1826.377212946768) rotate(0 411.4997110632155 95.01832134350434)"><text x="0" y="133.1776791950559" font-family="Virgil, Segoe UI Emoji" font-size="152.0293141496072px" fill="#1e1e1e" text-anchor="start" style="white-space: pre;" direction="ltr" dominant-baseline="alphabetic">UserGames</text></g><g stroke-linecap="round" transform="translate(993.6760947841467 3775.833333333334) rotate(0 522.4999999999995 275)"><path d="M32 0 C409.78 2.22, 785.99 0.93, 1013 0 M32 0 C266.14 0.54, 500.62 1.03, 1013 0 M1013 0 C1032.97 -1.51, 1043.4 11.7, 1045 32 M1013 0 C1035.51 0.56, 1047.06 9.86, 1045 32 M1045 32 C1042.91 199.64, 1043.52 367.69, 1045 518 M1045 32 C1046.07 192.57, 1046.09 352.85, 1045 518 M1045 518 C1045.62 538.81, 1035.03 549.92, 1013 550 M1045 518 C1045.73 540.37, 1036.55 551.13, 1013 550 M1013 550 C727.94 549.18, 444.39 548.76, 32 550 M1013 550 C731.09 553.22, 449.55 553.47, 32 550 M32 550 C10.36 548.27, -0.61 541.31, 0 518 M32 550 C9.62 549.39, 1.67 541.05, 0 518 M0 518 C1.21 331.34, 0.25 144.34, 0 32 M0 518 C-1.06 359.01, -0.92 200.81, 0 32 M0 32 C-1.49 12.15, 10.08 1.11, 32 0 M0 32 C2.23 10.76, 9.35 -0.7, 32 0" stroke="#1e1e1e" stroke-width="2" fill="none"></path></g><g transform="translate(1275.701088680631 3942.5910461459225) rotate(0 240.47500610351562 108.24228718741278)"><text x="0" y="151.71238972187757" font-family="Virgil, Segoe UI Emoji" font-size="173.18765949986025px" fill="#1e1e1e" text-anchor="start" style="white-space: pre;" direction="ltr" dominant-baseline="alphabetic">Users</text></g><g transform="translate(15.972398427266853 4950.833333333334) rotate(0 270.5036994086372 95)"><text x="0" y="133.1520000000002" font-family="Virgil, Segoe UI Emoji" font-size="152.00000000000023px" fill="#1e1e1e" text-anchor="start" style="white-space: pre;" direction="ltr" dominant-baseline="alphabetic">UserID</text></g><g transform="translate(1383.8149836730354 4995.833333333334) rotate(0 309.30555555555543 85)"><text x="0" y="119.136" font-family="Virgil, Segoe UI Emoji" font-size="136px" fill="#1e1e1e" text-anchor="start" style="white-space: pre;" direction="ltr" dominant-baseline="alphabetic">Username</text></g><g transform="translate(2699.481659664518 4770.833333333334) rotate(0 206.3055496215818 105)"><text x="0" y="147.168" font-family="Virgil, Segoe UI Emoji" font-size="168px" fill="#1e1e1e" text-anchor="start" style="white-space: pre;" direction="ltr" dominant-baseline="alphabetic">Email</text></g><g stroke-linecap="round"><g transform="translate(1077.9123913269486 4332.618117695745) rotate(0 -358.2032962004175 306.9746525338469)"><path d="M0.7 0.52 C-118.72 102.81, -596.54 512.23, -716.15 614.2 M-0.39 -0.26 C-120 101.67, -598.1 510.35, -717.11 612.6" stroke="#1e1e1e" stroke-width="2" fill="none"></path></g><g transform="translate(1077.9123913269486 4332.618117695745) rotate(0 -358.2032962004175 306.9746525338469)"><path d="M-704.83 590.82 C-707.97 598.11, -711.27 604.05, -717.11 612.6 M-704.83 590.82 C-707.75 595.38, -710.91 601.7, -717.11 612.6" stroke="#1e1e1e" stroke-width="2" fill="none"></path></g><g transform="translate(1077.9123913269486 4332.618117695745) rotate(0 -358.2032962004175 306.9746525338469)"><path d="M-693.71 603.81 C-700.6 606.84, -707.6 608.45, -717.11 612.6 M-693.71 603.81 C-699.12 605.3, -704.83 608.64, -717.11 612.6" stroke="#1e1e1e" stroke-width="2" fill="none"></path></g></g><mask></mask><g stroke-linecap="round"><g transform="translate(1425.22941854718 4360.833333333334) rotate(0 140.14379558032329 314.5647635941764)"><path d="M1.15 -0.42 C47.61 104.58, 231.35 524.58, 277.71 629.53 M0.3 -1.69 C47.23 103.51, 233.54 525.5, 279.99 630.82" stroke="#1e1e1e" stroke-width="2" fill="none"></path></g><g transform="translate(1425.22941854718 4360.833333333334) rotate(0 140.14379558032329 314.5647635941764)"><path d="M262.68 612.78 C265.58 615.05, 269.17 621.57, 279.99 630.82 M262.68 612.78 C267.25 616.33, 270.79 621.3, 279.99 630.82" stroke="#1e1e1e" stroke-width="2" fill="none"></path></g><g transform="translate(1425.22941854718 4360.833333333334) rotate(0 140.14379558032329 314.5647635941764)"><path d="M278.32 605.87 C277.88 609.76, 278.15 617.74, 279.99 630.82 M278.32 605.87 C279.12 611.14, 278.9 617.77, 279.99 630.82" stroke="#1e1e1e" stroke-width="2" fill="none"></path></g></g><mask></mask><g stroke-linecap="round"><g transform="translate(2052.538896876593 4340.249390982555) rotate(0 409.65206810655 210.80922070853194)"><path d="M0.52 0.68 C136.92 70.9, 681.55 350.25, 817.86 420.26 M-0.67 0 C136.13 70.49, 683.65 351.27, 819.98 421.62" stroke="#1e1e1e" stroke-width="2" fill="none"></path></g><g transform="translate(2052.538896876593 4340.249390982555) rotate(0 409.65206810655 210.80922070853194)"><path d="M795.18 418.48 C802.57 417.27, 807.17 418.94, 819.98 421.62 M795.18 418.48 C802.37 419.63, 810.03 421.15, 819.98 421.62" stroke="#1e1e1e" stroke-width="2" fill="none"></path></g><g transform="translate(2052.538896876593 4340.249390982555) rotate(0 409.65206810655 210.80922070853194)"><path d="M803 403.28 C808.27 405.95, 810.89 411.47, 819.98 421.62 M803 403.28 C807.61 409.09, 812.84 415.34, 819.98 421.62" stroke="#1e1e1e" stroke-width="2" fill="none"></path></g></g><mask></mask><g transform="translate(1690.34276145081 2379.166666666669) rotate(0 203.38518100314673 71.4281994573048)"><text x="0" y="100.11376435935821" font-family="Virgil, Segoe UI Emoji" font-size="114.28511913168748px" fill="#1e1e1e" text-anchor="start" style="white-space: pre;" direction="ltr" dominant-baseline="alphabetic">UserID</text></g><g transform="translate(1503.676094784143 1870.8333333333367) rotate(0 266.7148262306491 84.16666666666652)"><text x="0" y="117.96799999999979" font-family="Virgil, Segoe UI Emoji" font-size="134.66666666666643px" fill="#1e1e1e" text-anchor="start" style="white-space: pre;" direction="ltr" dominant-baseline="alphabetic">GameID</text></g><g transform="translate(1723.676094784144 1312.500000000001) rotate(0 367.1793269404668 65.83333333333348)"><text x="0" y="92.27200000000022" font-family="Virgil, Segoe UI Emoji" font-size="105.33333333333358px" fill="#1e1e1e" text-anchor="start" style="white-space: pre;" direction="ltr" dominant-baseline="alphabetic">PurchaseDate</text></g><g transform="translate(2652.0094281174756 1030.8333333333348) rotate(0 175.48301908704912 70.83333333333303)"><text x="0" y="99.27999999999955" font-family="Virgil, Segoe UI Emoji" font-size="113.33333333333283px" fill="#1e1e1e" text-anchor="start" style="white-space: pre;" direction="ltr" dominant-baseline="alphabetic">Rating</text></g><g stroke-linecap="round"><g transform="translate(2613.6760947841412 2202.4238885071436) rotate(0 -253.7769412403111 98.4383705948253)"><path d="M-1.09 0.12 C-85.75 32.68, -423.11 163.87, -507.51 196.56 M0.53 -0.87 C-84.25 32.35, -423.34 164.76, -508.09 197.75" stroke="#1e1e1e" stroke-width="2" fill="none"></path></g><g transform="translate(2613.6760947841412 2202.4238885071436) rotate(0 -253.7769412403111 98.4383705948253)"><path d="M-489.31 181.24 C-495.21 187.77, -502.78 193.24, -508.09 197.75 M-489.31 181.24 C-493.53 184.18, -497.02 187.76, -508.09 197.75" stroke="#1e1e1e" stroke-width="2" fill="none"></path></g><g transform="translate(2613.6760947841412 2202.4238885071436) rotate(0 -253.7769412403111 98.4383705948253)"><path d="M-483.09 197.18 C-491.22 198.34, -500.87 198.5, -508.09 197.75 M-483.09 197.18 C-488.66 196.68, -493.5 196.79, -508.09 197.75" stroke="#1e1e1e" stroke-width="2" fill="none"></path></g></g><mask></mask><g stroke-linecap="round"><g transform="translate(2628.8483358450076 1914.7373343028885) rotate(0 -291.4705899398982 7.805035114035036)"><path d="M1.19 -0.83 C-96.2 1.81, -486.61 12.34, -584.14 15.27 M0.36 1.35 C-96.67 4.18, -484.24 14.2, -581.81 16.44" stroke="#1e1e1e" stroke-width="2" fill="none"></path></g><g transform="translate(2628.8483358450076 1914.7373343028885) rotate(0 -291.4705899398982 7.805035114035036)"><path d="M-558.53 7.31 C-567.4 9.25, -574.65 12.47, -581.81 16.44 M-558.53 7.31 C-566.21 9.57, -575.16 13.8, -581.81 16.44" stroke="#1e1e1e" stroke-width="2" fill="none"></path></g><g transform="translate(2628.8483358450076 1914.7373343028885) rotate(0 -291.4705899398982 7.805035114035036)"><path d="M-558.11 24.4 C-567.04 20.88, -574.42 18.62, -581.81 16.44 M-558.11 24.4 C-565.79 20.45, -574.9 18.46, -581.81 16.44" stroke="#1e1e1e" stroke-width="2" fill="none"></path></g></g><mask></mask><g stroke-linecap="round"><g transform="translate(2603.1816691783406 1753.6138477474651) rotate(0 -247.6670774373158 -144.60493600506152)"><path d="M1.01 0.79 C-81.52 -47.49, -412.59 -241.69, -495.1 -290 M0.08 0.16 C-82.66 -47.93, -413.91 -240.19, -496.34 -288.75" stroke="#1e1e1e" stroke-width="2" fill="none"></path></g><g transform="translate(2603.1816691783406 1753.6138477474651) rotate(0 -247.6670774373158 -144.60493600506152)"><path d="M-471.74 -284.29 C-477.94 -286.39, -487.71 -285.96, -496.34 -288.75 M-471.74 -284.29 C-480.56 -285.71, -487.98 -287.44, -496.34 -288.75" stroke="#1e1e1e" stroke-width="2" fill="none"></path></g><g transform="translate(2603.1816691783406 1753.6138477474651) rotate(0 -247.6670774373158 -144.60493600506152)"><path d="M-480.37 -269.52 C-483.89 -276.22, -491.01 -280.3, -496.34 -288.75 M-480.37 -269.52 C-486.36 -275.92, -490.91 -282.55, -496.34 -288.75" stroke="#1e1e1e" stroke-width="2" fill="none"></path></g></g><mask></mask><g stroke-linecap="round"><g transform="translate(2993.2522793828475 1605.9577352472106) rotate(0 -105.89672180478226 -210.6981828518035)"><path d="M1.14 -0.71 C-34.43 -71.15, -176.88 -352.62, -212.5 -422.93 M0.27 1.53 C-35.44 -68.78, -177.4 -351.45, -212.93 -421.99" stroke="#1e1e1e" stroke-width="2" fill="none"></path></g><g transform="translate(2993.2522793828475 1605.9577352472106) rotate(0 -105.89672180478226 -210.6981828518035)"><path d="M-194.74 -404.84 C-202.66 -409.41, -210.16 -415.99, -212.93 -421.99 M-194.74 -404.84 C-199.24 -407.72, -204.19 -412.96, -212.93 -421.99" stroke="#1e1e1e" stroke-width="2" fill="none"></path></g><g transform="translate(2993.2522793828475 1605.9577352472106) rotate(0 -105.89672180478226 -210.6981828518035)"><path d="M-210.01 -397.16 C-212.23 -404.73, -214.02 -414.19, -212.93 -421.99 M-210.01 -397.16 C-210.91 -401.99, -212.27 -409.04, -212.93 -421.99" stroke="#1e1e1e" stroke-width="2" fill="none"></path></g></g><mask></mask><g stroke-linecap="round"><g transform="translate(5742.009428117474 955.2492701115752) rotate(0 -1021.8447715441015 362.3118592449166)"><path d="M-0.15 1.12 C-340.65 121.54, -1702.47 602.18, -2043.2 722.51 M-1.7 0.66 C-342.22 121.27, -1702.92 603.91, -2043.53 723.96" stroke="#2f9e44" stroke-width="2" fill="none"></path></g><g transform="translate(5742.009428117474 955.2492701115752) rotate(0 -1021.8447715441015 362.3118592449166)"><path d="M-2024.24 708.07 C-2027.78 714.45, -2035.34 716.67, -2043.53 723.96 M-2024.24 708.07 C-2030.41 713.52, -2036.89 718.94, -2043.53 723.96" stroke="#2f9e44" stroke-width="2" fill="none"></path></g><g transform="translate(5742.009428117474 955.2492701115752) rotate(0 -1021.8447715441015 362.3118592449166)"><path d="M-2018.54 724.19 C-2023.68 726.04, -2032.83 723.75, -2043.53 723.96 M-2018.54 724.19 C-2026.67 724.19, -2035.07 724.18, -2043.53 723.96" stroke="#2f9e44" stroke-width="2" fill="none"></path></g></g><mask></mask><g stroke-linecap="round"><g transform="translate(6236.023415492237 1074.166666666672) rotate(0 -259.2972516397692 554.4145926830915)"><path d="M-0.05 -0.26 C-86.46 184.42, -431.76 924.29, -518.04 1109.17 M-1.54 -1.45 C-88.07 183.88, -432.48 925.06, -518.54 1110.28" stroke="#2f9e44" stroke-width="2" fill="none"></path></g><g transform="translate(6236.023415492237 1074.166666666672) rotate(0 -259.2972516397692 554.4145926830915)"><path d="M-516.4 1085.37 C-517.33 1095.13, -518.99 1103.96, -518.54 1110.28 M-516.4 1085.37 C-516.55 1091.16, -517.84 1096.36, -518.54 1110.28" stroke="#2f9e44" stroke-width="2" fill="none"></path></g><g transform="translate(6236.023415492237 1074.166666666672) rotate(0 -259.2972516397692 554.4145926830915)"><path d="M-500.89 1092.58 C-507.08 1099.91, -513.94 1106.33, -518.54 1110.28 M-500.89 1092.58 C-504.51 1096.8, -509.24 1100.41, -518.54 1110.28" stroke="#2f9e44" stroke-width="2" fill="none"></path></g></g><mask></mask><g stroke-linecap="round"><g transform="translate(6790.985618593661 966.5506668021153) rotate(0 834.5649555813345 350.2530831295094)"><path d="M0.52 -0.04 C278.64 116.87, 1391.6 583.69, 1669.79 700.37 M-0.66 -1.1 C277.27 116.05, 1390.97 584.61, 1669.28 701.61" stroke="#2f9e44" stroke-width="2" fill="none"></path></g><g transform="translate(6790.985618593661 966.5506668021153) rotate(0 834.5649555813345 350.2530831295094)"><path d="M1644.31 700.38 C1654.04 702.15, 1662.94 702.36, 1669.28 701.61 M1644.31 700.38 C1650.91 701.09, 1654.9 701.64, 1669.28 701.61" stroke="#2f9e44" stroke-width="2" fill="none"></path></g><g transform="translate(6790.985618593661 966.5506668021153) rotate(0 834.5649555813345 350.2530831295094)"><path d="M1650.94 684.62 C1657.92 692.6, 1664.22 699, 1669.28 701.61 M1650.94 684.62 C1656.08 688.83, 1658.58 692.91, 1669.28 701.61" stroke="#2f9e44" stroke-width="2" fill="none"></path></g></g><mask></mask><g stroke-linecap="round"><g transform="translate(2857.946086374613 2252.5000000000045) rotate(0 -576.1965714396031 754.8415601520896)"><path d="M-0.2 0.1 C-192.26 251.97, -959.53 1258.75, -1151.46 1510.58 M-1.77 -0.9 C-194.02 250.68, -960.39 1257.07, -1152.19 1508.77" stroke="#2f9e44" stroke-width="2" fill="none"></path></g><g transform="translate(2857.946086374613 2252.5000000000045) rotate(0 -576.1965714396031 754.8415601520896)"><path d="M-1144.75 1484.9 C-1147.48 1494.42, -1149.42 1502.67, -1152.19 1508.77 M-1144.75 1484.9 C-1147.79 1494.8, -1150.31 1504.37, -1152.19 1508.77" stroke="#2f9e44" stroke-width="2" fill="none"></path></g><g transform="translate(2857.946086374613 2252.5000000000045) rotate(0 -576.1965714396031 754.8415601520896)"><path d="M-1131.15 1495.26 C-1138.85 1500.93, -1145.83 1505.33, -1152.19 1508.77 M-1131.15 1495.26 C-1139.45 1501.25, -1147.26 1506.78, -1152.19 1508.77" stroke="#2f9e44" stroke-width="2" fill="none"></path></g></g><mask></mask><g transform="translate(5439.676094784141 734.012820512824) rotate(0 31.541666666666742 145.57692307692332)"><text x="0" y="204.0406153846157" font-family="Virgil, Segoe UI Emoji" font-size="232.92307692307733px" fill="#2f9e44" text-anchor="start" style="white-space: pre;" direction="ltr" dominant-baseline="alphabetic">1</text></g><g transform="translate(6260.342761450807 1106.4336138164367) rotate(0 76.36388874053944 148.22610173658109)"><text x="0" y="207.75370419399212" font-family="Virgil, Segoe UI Emoji" font-size="237.16176277852983px" fill="#2f9e44" text-anchor="start" style="white-space: pre;" direction="ltr" dominant-baseline="alphabetic">N</text></g><g transform="translate(6896.251095229189 846.1334735748874) rotate(0 76.59166622161865 148.66822914314184)"><text x="0" y="208.37338996702766" font-family="Virgil, Segoe UI Emoji" font-size="237.86916662902706px" fill="#2f9e44" text-anchor="start" style="white-space: pre;" direction="ltr" dominant-baseline="alphabetic">N</text></g><g transform="translate(8643.801094784141 1365.2564102564138) rotate(0 31.541666666666742 145.57692307692332)"><text x="0" y="204.0406153846157" font-family="Virgil, Segoe UI Emoji" font-size="232.92307692307733px" fill="#2f9e44" text-anchor="start" style="white-space: pre;" direction="ltr" dominant-baseline="alphabetic">1</text></g><g transform="translate(5883.801094784141 1880.2564102564138) rotate(0 31.541666666666742 145.57692307692332)"><text x="0" y="204.0406153846157" font-family="Virgil, Segoe UI Emoji" font-size="232.92307692307733px" fill="#2f9e44" text-anchor="start" style="white-space: pre;" direction="ltr" dominant-baseline="alphabetic">1</text></g><g transform="translate(3493.978872710268 1277.6072315967576) rotate(0 76.36388874053944 148.2261017365813)"><text x="0" y="207.75370419399212" font-family="Virgil, Segoe UI Emoji" font-size="237.16176277852983px" fill="#2f9e44" text-anchor="start" style="white-space: pre;" direction="ltr" dominant-baseline="alphabetic">N</text></g><g transform="translate(2868.9788727102673 2307.607231596756) rotate(0 76.36388874053944 148.2261017365813)"><text x="0" y="207.75370419399212" font-family="Virgil, Segoe UI Emoji" font-size="237.16176277852983px" fill="#2f9e44" text-anchor="start" style="white-space: pre;" direction="ltr" dominant-baseline="alphabetic">N</text></g><g transform="translate(1983.8010947841412 3460.256410256414) rotate(0 31.541666666666742 145.57692307692332)"><text x="0" y="204.0406153846157" font-family="Virgil, Segoe UI Emoji" font-size="232.92307692307733px" fill="#2f9e44" text-anchor="start" style="white-space: pre;" direction="ltr" dominant-baseline="alphabetic">1</text></g><g stroke-linecap="round"><g transform="translate(4918.176094784141 574.3333333333389) rotate(0 207.00512340340768 -2.8112084546391998)"><path d="M-1.25 -1.15 C67.18 -0.87, 341.44 -0.63, 409.96 -0.43 M3.27 -4.25 C72.64 -4.69, 346.54 -5.07, 415.26 -5.19" stroke="#1e1e1e" stroke-width="2" fill="none"></path></g></g><mask></mask><g stroke-linecap="round"><g transform="translate(7638.985618593666 2970.503968253979) rotate(0 290.20044345837096 1.2261790199950156)"><path d="M1.41 0.68 C98.32 1.68, 485.2 3.48, 581.67 3.87 M-1.27 -1.42 C95.17 -1.06, 481.13 -1.71, 578.98 -0.4" stroke="#1e1e1e" stroke-width="2" fill="none"></path></g></g><mask></mask><g stroke-linecap="round"><g transform="translate(4611.485618593666 3650.503968253979) rotate(0 326.84323816332966 -2.037915835678632)"><path d="M1.25 -2.21 C110.72 -2.69, 546.53 -2.06, 655.2 -2.94 M-1.51 2.76 C107.75 1.51, 542.96 -5.42, 653.07 -6.84" stroke="#1e1e1e" stroke-width="2" fill="none"></path></g></g><mask></mask><g stroke-linecap="round"><g transform="translate(12.152285260334793 5135.170634920647) rotate(0 253.3308085153617 1.337845060415475)"><path d="M-2.15 -1.76 C82.25 -1.07, 418.57 1.27, 503.67 1.93 M1.87 3.45 C87.37 4.64, 424.46 4.29, 508.81 4.44" stroke="#1e1e1e" stroke-width="2" fill="none"></path></g></g><mask></mask><g stroke-linecap="round"><g transform="translate(1675.8189519270045 2531.003968253979) rotate(0 204.08363483063886 -3.006502698523036)"><path d="M-0.91 -1.83 C67.07 -3.52, 340.31 -8.61, 409.08 -9.37 M3.79 3.35 C71.21 1.83, 338.51 -6.13, 406.34 -7.2" stroke="#1e1e1e" stroke-width="2" fill="none"></path></g></g><mask></mask><g stroke-linecap="round"><g transform="translate(1502.4856185936715 2047.670634920646) rotate(0 263.78126012053303 0.7097880631686166)"><path d="M-0.23 -1.48 C88.69 -0.92, 442.72 1.75, 531.36 1.65 M-3.8 3.88 C85.07 3.8, 440.78 -1.79, 529.86 -2.47" stroke="#1e1e1e" stroke-width="2" fill="none"></path></g></g><mask></mask></svg>